<?xml version="1.0" standalone="no"?>
<!DOCTYPE svg PUBLIC "-//W3C//DTD SVG 1.1//EN" "http://www.w3.org/Graphics/SVG/1.1/DTD/svg11.dtd" >
<!--
2013-9-30: Created.
-->
<svg>
<metadata>
Created by iconfont
</metadata>
<defs>

<font id="iconfont" horiz-adv-x="1024" >
  <font-face
    font-family="iconfont"
    font-weight="500"
    font-stretch="normal"
    units-per-em="1024"
    ascent="896"
    descent="-128"
  />
    <missing-glyph />
    
    <glyph glyph-name="search" unicode="&#58921;" d="M617.059418 662.996185c-106.051897 106.051897-278.003713 106.050897-384.053612 0-106.052896-106.056893-106.052896-277.998917-0.000999-384.05561 97.69856-97.69856 251.323003-105.389346 357.829592-23.078353 1.668869-2.570257 3.64253-5.020596 5.92898-7.308045l204.91147-212.709183c15.069783-15.074779 41.457892-13.122103 56.525476 1.953675 15.076778 15.065785 17.025457 41.457692 1.952676 56.527474L647.444816 299.235814c-2.28645 2.287449-4.739786 4.26311-7.306047 5.924983C722.448764 411.674181 714.753981 565.296825 617.059418 662.996185zM573.787956 322.21723299999996c-82.158097-82.158097-215.357388-82.158097-297.515485 0.000999-82.149103 82.149103-82.148104 215.347394 0.008994 297.504492 82.149103 82.148104 215.347394 82.148104 297.495498 0C655.93506 537.564627 655.934061 404.367335 573.787956 322.21723299999996z"  horiz-adv-x="1024" />

    
    <glyph glyph-name="save" unicode="&#58897;" d="M404.15683 96.60240799999997c-19.556405-19.560498-51.559283-19.560498-71.115688 0L117.346615 312.34912299999996c-19.558451 19.558451-19.558451 51.568493 0 71.130014l0.578168 0.578168c19.556405 19.560498 53.579289 21.87624 75.603909 5.143137l135.02423-102.56905c22.024619-16.731056 56.894801-15.313777 77.487815 3.154853l427.076842 382.990764c20.590967 18.467607 53.450353 17.582447 73.018014-1.968841l0.505513-0.505513c19.568684-19.551288 19.577894-51.54905 0.019443-71.110571L404.15683 96.60240799999997z"  horiz-adv-x="1024" />

    
    <glyph glyph-name="more" unicode="&#58904;" d="M221.184053 477.465718c-51.625798 0-93.475951-41.847084-93.475951-93.476975 0-51.626821 41.850154-93.456508 93.475951-93.456508 51.607378 0 93.456508 41.829687 93.456508 93.456508C314.640562 435.618635 272.791431 477.465718 221.184053 477.465718zM512.000512 477.465718c-51.647287 0-93.476975-41.847084-93.476975-93.476975 0-51.626821 41.829687-93.456508 93.476975-93.456508 51.607378 0 93.476975 41.829687 93.476975 93.456508C605.476463 435.618635 563.606867 477.465718 512.000512 477.465718zM802.814923 477.465718c-51.647287 0-93.476975-41.847084-93.476975-93.476975 0-51.626821 41.829687-93.456508 93.476975-93.456508 51.627844 0 93.476975 41.829687 93.476975 93.456508C896.291898 435.618635 854.442768 477.465718 802.814923 477.465718z"  horiz-adv-x="1024" />

    
    <glyph glyph-name="bill-menu" unicode="&#58989;" d="M800 576L224 576c-17.664 0-32 14.336-32 32s14.336 32 32 32l576 0c17.696 0 32-14.336 32-32S817.696 576 800 576zM800 352L224 352c-17.664 0-32 14.336-32 32s14.336 32 32 32l576 0c17.696 0 32-14.336 32-32S817.696 352 800 352zM800 128L224 128c-17.664 0-32 14.336-32 32s14.336 32 32 32l576 0c17.696 0 32-14.336 32-32S817.696 128 800 128z"  horiz-adv-x="1024" />

    
    <glyph glyph-name="bill-view" unicode="&#59018;" d="M928.842245 383.90892599999995c0 5.006014-0.846274 9.193383-1.086751 9.691733-0.182149 2.480494-1.028423 7.001461-1.815345 9.374508-0.210801 0.590448-0.484024 1.209548-0.724501 1.799996-0.424672 1.360997-0.876973 2.691295-1.390673 3.749394-76.871785 168.137395-242.376213 281.144168-411.782507 281.144168-169.375595 0-334.865697-112.902396-411.388535-280.130072-0.921999-1.815345-1.572822-3.553942-1.981121-5.066389-0.181125-0.49835-0.39295-0.967024-0.558725-1.406023-1.512447-4.430916-1.542122-7.514137-1.421372-6.712889-0.710175-3.251044-1.360997-9.722432-1.360997-9.722432-0.181125-1.949398-0.181125-3.50687 0.030699-5.442966 0 0 0.649799-5.65479 0.968048-6.80294 0.090051-1.602498 0.483001-3.931542 0.951675-6.048763l-0.030699 0c0.408299-1.814322 0.968048-3.568269 1.738597-5.291516 0.393973-1.330298 0.862647-2.570545 1.270946-3.507894 76.976162-168.166047 242.436588-281.20352 411.781484-281.20352 169.436994 0 334.941422 112.945375 410.936233 279.328823 1.177825 2.177596 1.935072 4.233418 2.448772 6.018064 0.2415 0.543376 0.454348 1.027399 0.604774 1.511423 1.331321 3.872191 1.602498 7.227612 1.481747 7.227612l-0.028653-0.029676C928.027693 375.07881699999996 928.842245 379.10041 928.842245 383.90892599999995zM872.717993 381.85310400000003c-0.029676-0.121773-0.091074-0.272199-0.151449-0.393973-0.090051-0.36225-0.240477-0.785899-0.332575-1.209548-68.403926-147.420561-212.830293-246.337431-360.191502-246.337431-146.997935 0-291.168476 98.642624-360.252901 246.578931-0.166799 0.5137-0.287549 0.998747-0.468674 1.481747-0.030699 0.484024-0.12075 0.876973-0.150426 1.150196-0.060375 0.300852-0.12075 0.724501-0.166799 1.088798l0 0.3776c0.166799 0.620124 0.286526 1.239224 0.347924 1.919722 0.12075 0.36225 0.211824 0.710175 0.347924 1.103124C220.132094 535.10958 364.680235 634.0714760000001 512.041444 634.0714760000001c147.420561 0 291.940049-99.051947 360.161826-246.322082 0.060375-0.287549 0.121773-0.530073 0.212848-0.726547 0.060375-0.2415 0.119727-0.484024 0.240477-0.740874 0.151449-1.104147 0.272199-2.192945 0.423649-2.736321C872.899118 382.971577 872.809067 382.427178 872.717993 381.85310400000003zM512.041444 522.939399c-76.598562 0-138.954749-62.325487-138.954749-138.939399 0-76.598562 62.356187-138.954749 138.954749-138.954749 76.598562 0 138.954749 62.356187 138.954749 138.954749C650.996193 460.613912 588.640006 522.939399 512.041444 522.939399zM512.041444 300.627151c-45.935192 0-83.371826 37.406958-83.371826 83.371826 0 45.950542 37.436634 83.356476 83.371826 83.356476 45.964868 0 83.373873-37.406958 83.373873-83.356476C595.414293 338.03410899999994 558.006312 300.627151 512.041444 300.627151z"  horiz-adv-x="1024" />

    
    <glyph glyph-name="fuxuankuangyixuan" unicode="&#58927;" d="M512 879.203097C238.245161 879.203097 16.499613 657.606194 16.499613 384c0-273.589677 221.745548-495.203097 495.500387-495.203097 273.70529 0 495.500387 221.613419 495.500387 495.203097C1007.500387 657.606194 785.70529 879.203097 512 879.203097zM817.895226 547.328 451.451871 179.282581c-1.271742-1.932387-2.791226-3.79871-4.525419-5.516387-14.385548-14.385548-37.706323-14.385548-52.058839 0l-182.139871 181.842581c-14.369032 14.385548-14.369032 37.607226 0 51.976258 14.385548 14.352516 37.67329 14.352516 52.00929 0l155.614968-155.268129 345.533935 347.003871c14.385548 14.319484 37.640258 14.319484 52.025806 0C832.264258 584.968258 832.264258 561.730065 817.895226 547.328z"  horiz-adv-x="1024" />

    
    <glyph glyph-name="bill-void" unicode="&#58882;" d="M930.080018-127.97799999999995h-836.082037c-51.798887 0-93.997981 42.199093-93.997981 94.097978v643.086184c0 18.799596 15.199673 34.099267 34.099268 34.099267s34.099267-15.199673 34.099267-34.099267v-643.086184c0-14.299693 11.499753-25.799446 25.699448-25.799446h836.082037c14.399691 0 25.699448 11.299757 25.699448 25.699448v836.082037c0 14.399691-11.299757 25.699448-25.699448 25.699448h-835.982039c-14.399691 0-25.699448-11.299757-25.699448-25.699448 0-18.799596-15.199673-34.099267-34.099267-34.099267s-34.099267 15.199673-34.099268 33.999269c0 51.798887 42.099096 93.997981 93.997981 93.997981h836.082037c51.798887 0 93.997981-42.099096 93.997981-93.997981v-836.082037c-0.199996-51.798887-42.299091-93.897983-94.097979-93.897982zM299.593564 52.11812999999995c-11.199759 0-22.199523 5.499882-28.699384 15.599665-10.199781 15.799661-5.799875 36.999205 10.099783 47.198986l204.295611 132.19716-197.095765 83.7982c-11.999742 5.199888-19.99957 16.599643-20.799553 29.599364-0.699985 13.099719 6.099869 25.299456 17.499624 31.699319l288.09381 159.496573-539.388411 213.595411c-17.499624 6.99985-26.199437 26.799424-19.199588 44.299048 6.99985 17.499624 26.799424 26.199437 44.299048 19.199588l606.786964-240.494833c12.199738-4.899895 20.599557-16.29965 21.499538-29.499367 0.799983-13.199716-5.999871-25.699448-17.499624-31.999312l-290.093768-160.59655 191.895878-81.498249c11.599751-4.899895 19.599579-15.799661 20.599557-28.39939 1.099976-12.599729-4.799897-24.699469-15.499667-31.599321l-258.194453-167.196408c-5.699878-3.699921-12.199738-5.399884-18.5996-5.399884z"  horiz-adv-x="1024" />

    
    <glyph glyph-name="bill-withdraw" unicode="&#58883;" d="M395.689-64.27800000000002c-18.8 0-44.9 8.8-75 43l-295.1 336c-34.1 38.8-34.1 99.6 0 138.5l295.2 336c14.2 16.1 28.5 27.9 42.7 34.9 22.9 11.4 41.1 8.7 52.5 4.4 17-6.4 45.5-26.9 45.5-92.3v-18.2c0-17.7-14.3-32-32-32s-32 14.3-32 32v18.2c0 17.8-2.8 26.9-4.6 31-4.1-1.8-12.2-6.9-23.9-20.2l-295.3-336c-12.6-14.4-12.6-39.6 0-53.9l295.2-336c11.7-13.3 19.8-18.4 23.9-20.2 1.8 4.1 4.6 13.2 4.6 31v240.4c0 17.7 14.3 32 32 32s32-14.3 32-32v-240.6c0-21.5-3-39.7-9-54.4-9.7-23.6-25.2-33.7-36.5-37.9-5.2-2-12-3.7-20.2-3.7zM992.089 53.52200000000005c-5.7 0-11.5 1.6-16.7 4.6-142.4 86.6-201 114.1-259.5 134.5-72.7 25.4-149.8 39.1-284.2 50.3-17.7 1.5-30.7 17-29.3 34.6 1.5 17.7 17 30.7 34.6 29.3 140.3-11.7 221.6-26.2 300-53.6 62.9-22 123.4-52.7 200.4-97.6-29.3 83.9-68 155.7-115.5 214.4-48.8 60.1-107 106.7-173.1 138.4-113.4 54.3-212.4 46.1-213.4 46.1-17.6-1.7-33.2 11.3-34.9 28.8s11.3 33.2 28.8 34.9c4.6 0.5 115 10.2 243.7-50.3 75.3-35.5 141.6-87.7 196.9-155.5 68.2-83.5 119.8-190.7 153-318.7 3.3-12.6-1.5-26-11.8-33.8-5.6-4.2-12.2-6.4-19-6.4z"  horiz-adv-x="1024" />

    
    <glyph glyph-name="bill-save" unicode="&#58891;" d="M845.312 895.488H32.512v-1022.976h958.976v876.8L845.312 895.488z m-172.864-62.976v-256H351.488v256h320.96zM287.488-64.51199999999994V290.24l29.184 29.248h390.656l29.184-29.248v-354.752H287.488z m640 0h-126.976V310.84799999999996L727.424 384H296.576L223.488 310.84799999999996v-375.36H96.512V832.512h190.976v-320.448h449.024V832.512h79.68l111.296-112.32v-784.704z m-384 832h65.984v-128H543.488v128z"  horiz-adv-x="1024" />

    
    <glyph glyph-name="bill-exprot" unicode="&#58907;" d="M516.394 793.301c10.469 0 19.289-3.592 26.453-10.744L728.91 596.494c7.164-7.164 10.744-15.98 10.744-26.452 0-10.668-3.537-19.532-10.6-26.6-7.072-7.076-15.938-10.608-26.598-10.608-10.475 0-19.299 3.584-26.459 10.748l-122.381 122.68v-431.126c0-10.266-3.635-19.041-10.902-26.316-7.277-7.271-16.049-10.908-26.316-10.908-10.281 0-19.049 3.637-26.32 10.908-7.276 7.275-10.92 16.051-10.92 26.316V666.262l-122.364-122.68c-7.56-7.168-16.376-10.748-26.464-10.748-10.28 0-19.04 3.64-26.316 10.908-7.276 7.272-10.916 16.052-10.916 26.32 0 10.084 3.576 18.908 10.744 26.456l186.061 186.063c7.16 7.168 15.992 10.744 26.457 10.744l0.034-0.024z m367.71-520.935c10.264 0 19.045-3.639 26.309-10.912 7.268-7.275 10.912-16.051 10.912-26.328v-148.818c0-31.018-10.748-57.277-32.264-78.793-21.896-21.889-48.064-32.84-78.492-32.84H214.303c-30.417 0-56.772 10.855-79.06 32.568-21.716 22.287-32.568 48.643-32.568 79.064V235.12599999999998c0 10.285 3.634 19.053 10.908 26.328 7.276 7.273 16.049 10.912 26.321 10.912 10.266 0 19.04-3.639 26.316-10.912 7.273-7.275 10.908-16.051 10.908-26.328v-148.818c0-10.27 3.634-19.049 10.914-26.324 7.274-7.273 16.042-10.896 26.318-10.896h596.256c10.076 0 18.656 3.623 25.729 10.896 7.072 7.275 10.611 16.055 10.611 26.324V235.12599999999998c0 10.285 3.637 19.053 10.908 26.328 7.277 7.273 16.045 10.912 26.313 10.912h-0.073z"  horiz-adv-x="1024" />

    
    <glyph glyph-name="bill-change" unicode="&#59017;" d="M272 228.5h409.3L575.2 122.39999999999998l35.4-35.3L752 228.5v50H272zM756.3 721.2h50v-50h-50zM448.8 537.9l-35.4 35.4L272 431.9v-50h480v50H342.7zM654.3 721.2h50v-50h-50zM957 627V819H67v-870h890V627z m-50-628H117V769h790v-770z"  horiz-adv-x="1024" />

    
    <glyph glyph-name="unchecked" unicode="&#58905;" d="M804.571429 822.857143a146.285714 146.285714 0 0 0 146.285714-146.285714v-585.142858a146.285714 146.285714 0 0 0-146.285714-146.285714H219.428571a146.285714 146.285714 0 0 0-146.285714 146.285714V676.571429a146.285714 146.285714 0 0 0 146.285714 146.285714h585.142858m0 73.142857H219.428571a219.428571 219.428571 0 0 1-219.428571-219.428571v-585.142858a219.428571 219.428571 0 0 1 219.428571-219.428571h585.142858a219.428571 219.428571 0 0 1 219.428571 219.428571V676.571429a219.428571 219.428571 0 0 1-219.428571 219.428571z"  horiz-adv-x="1024" />

    
    <glyph glyph-name="bill-memo" unicode="&#58925;" d="M654.66140201 72.64409341999999H181.37959755V792.71971013h613.3398962v-165.31020122h-71.33070099V727.63695373H252.71029856v-589.9101039h401.95110345zM842.09974041 31.251460370000018h-135.89279533V532.64901558l67.94639768 56.49183257 67.94639765-56.49183257v-501.39755521z m-91.37618998 44.25627436h47.38024665V511.82253356l-23.69012333 19.78515792-23.69012332-19.78515792v-436.31479883zM349.29310902 641.72771531h270.74426657v-44.25627436h-270.74426657zM350.59476415 545.40523585h270.74426658v-44.25627436H350.59476415zM347.9914539 446.47944614h192.6449589v-44.25627436h-192.6449589z"  horiz-adv-x="1024" />

    
    <glyph glyph-name="bill-delete" unicode="&#58915;" d="M78.933333 770.133333v-53.333333h83.2v-691.2c0-49.066667 38.4-87.466667 87.466667-87.466667h529.066667c49.066667 0 87.466667 38.4 87.466666 87.466667V716.8h76.8V770.133333H78.933333z m733.866667-744.533333c0-19.2-14.933333-34.133333-34.133333-34.133333H249.6c-19.2 0-34.133333 14.933333-34.133333 34.133333V716.8h597.333333v-691.2zM398.933333 827.733333h226.133334v-53.333333H398.933333zM486.4 571.733333h53.333333v-407.466666h-53.333333zM642.133333 533.333333h53.333334v-332.8h-53.333334zM326.4 533.333333h53.333333v-332.8h-53.333333z"  horiz-adv-x="1024" />

    
    <glyph glyph-name="bill-alter" unicode="&#58880;" d="M521.152 502.592l319.936 320 45.248-45.312-320-320zM896-64H64V832h448v-64H128v-768h704V448h64v-512z"  horiz-adv-x="1024" />

    
    <glyph glyph-name="checked" unicode="&#58898;" d="M896.97 879.424H119.702c-61.317 0-111.038-49.665-111.038-111.038V-8.879999999999995c0-61.265 49.721-111.039 111.038-111.039H896.97c61.314 0 111.036 49.774 111.036 111.04V768.385c0.001 61.373-49.721 111.038-111.035 111.038z m-19.845-324.22L443.975 122.11000000000001c-11.68-11.736-26.883-17.735-42.168-18.026-15.07-1.232-30.563 3.9-42.086 15.423L133.583 345.59299999999996c-20.767 20.82-20.767 54.549 0 75.369 20.82 20.819 54.594 20.819 75.414 0l180.305-180.348 401.18 401.337c23.965 23.854 62.728 23.854 86.643 0 23.968-24.077 23.968-62.785 0-86.747z"  horiz-adv-x="1024" />

    
    <glyph glyph-name="alter" unicode="&#58994;" d="M702.708257 838.693578h-39.456881v-77.034862h39.456881c28.183486 0 50.730275-15.031193 50.730275-32.880734v-399.266055l67.640367 77.974312V728.7779820000001c0.93945 60.124771-23.486239 109.915596-118.370642 109.915596zM248.014679 691.2h335.383486c21.607339 0 38.517431 18.788991 38.517431 41.33578V853.724771C621.915596 877.211009 604.066055 896 583.398165 896H248.014679c-21.607339 0-38.517431-18.788991-38.517431-41.33578v-121.188991c0-23.486239 17.849541-42.275229 38.517431-42.275229z m20.66789 139.977982h293.108257V755.082569H268.682569V831.177982zM207.618349 461.034862h261.166972c21.607339 0 40.39633 18.788991 40.39633 42.27523s-17.849541 42.275229-40.39633 42.275229H207.618349c-21.607339 0-40.39633-18.788991-40.396331-42.275229s18.788991-42.275229 40.396331-42.27523z m373.900917-86.429357l-372.961468 1.878899c-21.607339 0-40.39633-17.849541-40.39633-41.33578 0-22.546789 17.849541-41.33578 40.39633-41.33578l372.961468-1.878899c21.607339 0 40.39633 17.849541 40.39633 41.33578-0.93945 22.546789-18.788991 41.33578-40.39633 41.33578z m-48.851376-170.040367l-325.049541 1.878899c-21.607339 0-40.39633-18.788991-40.396331-41.33578 0-22.546789 17.849541-41.33578 40.396331-41.33578l309.078899-1.878899h1.878899l14.091743 82.67156zM735.588991 11.977981999999997l-14.091743-14.091743v-15.031193c0-5.636697-1.878899-10.333945-3.757798-15.031193-5.636697-10.333945-15.970642-17.849541-28.183487-17.849541h-544.880734c-17.849541 0-32.880734 15.031193-32.880734 32.880734V728.7779820000001c0 17.849541 15.031193 32.880734 32.880734 32.880734h25.365138V838.693578h-25.365138C82.67156 838.693578 32.880734 788.902752 32.880734 728.7779820000001v-745.922936c0-60.124771 47.911927-108.976147 108.036697-109.915596H690.495413c60.124771 0.93945 108.036697 49.790826 108.036697 109.915596v93.005504l-62.943119-63.882568zM985.482569 352.058716l-37.577982-37.577982-75.155963 75.155963 37.577982 37.577982c12.212844 12.212844 25.365138 0 25.365137 0l49.790826-49.790826s13.152294-12.212844 0-25.365137zM543.001835-15.266055000000051l91.126605 15.970642-75.155963 75.155963-15.970642-91.126605zM859.59633 376.48440400000004L570.245872 87.13394500000004l75.155963-75.155963L934.752294 301.32844l-75.155964 75.155964zM608.763303 77.73945000000003c-2.818349-2.818349-8.455046-2.818349-11.273395 0s-2.818349 8.455046 0 11.273394l259.288074 260.227523c2.818349 2.818349 8.455046 2.818349 11.273394 0s2.818349-8.455046 0-11.273395L608.763303 77.73945000000003z"  horiz-adv-x="1024" />

    
    <glyph glyph-name="advancedsearch" unicode="&#58887;" d="M883.2 76.79999999999995l-153.6 153.6c57.6 64 89.6 147.2 89.6 236.8 0 192-153.6 345.6-345.6 345.6-192 0-345.6-153.6-345.6-345.6 0-192 153.6-345.6 345.6-345.6 76.8 0 153.6 25.6 211.2 70.4l153.6-153.6c6.4-6.4 12.8-12.8 25.6-12.8 19.2 0 32 12.8 32 32 0 6.4-6.4 12.8-12.8 19.2zM192 467.2c0 160 128 281.6 281.6 281.6 160 0 281.6-128 281.6-281.6 0-160-128-281.6-281.6-281.6C320 179.20000000000005 192 307.20000000000005 192 467.2zM601.6 499.2H505.6V595.2c0 19.2-12.8 32-32 32s-32-12.8-32-32v-96H352c-19.2 0-32-19.2-32-32 0-19.2 12.8-32 32-32H448v-96c0-19.2 12.8-32 32-32S512 320 512 339.20000000000005V435.2h96c19.2 0 32 12.8 32 32-6.4 12.8-19.2 32-38.4 32z"  horiz-adv-x="1024" />

    
    <glyph glyph-name="baocun" unicode="&#59071;" d="M512-128C230.4-128 0 102.4 0 384S230.4 896 512 896s512-230.4 512-512-230.4-512-512-512z m0 938.666667C277.333333 810.666667 85.333333 618.666667 85.333333 384s192-426.666667 426.666667-426.666667 426.666667 192 426.666667 426.666667S746.666667 810.666667 512 810.666667zM708.266667 520.533333c-17.066667 17.066667-44.8 17.066667-59.733334 0l-181.333333-181.333333-91.733333 91.733333c-14.933333 14.933333-40.533333 14.933333-55.466667 0l-6.4-4.266666c-14.933333-14.933333-14.933333-40.533333 0-55.466667l125.866667-125.866667c14.933333-14.933333 40.533333-14.933333 55.466666 0l4.266667 4.266667 209.066667 209.066667c17.066667 17.066667 17.066667 44.8 0 61.866666z"  horiz-adv-x="1024" />

    
    <glyph glyph-name="bill-add" unicode="&#59043;" d="M960.186 256.03499999999997H768.149V447.791h-64.012v-191.756H512.099v-63.919h192.037v-191.773l64.012 0.017V192.11699999999996h192.037v63.918z m0 0M832.162 768.01H64.012V832.054l768.15 0.078zM768.149 768.01h64.012v-255.964h-64.012zM128.025 64.279l-64.013-0.164V768.01h63.978zM64.212 64.279h319.862v-63.919H64.212zM192.08 576.1089999999999h384.075v63.919H192.08v-63.919z m0-127.768l320.062-0.069v63.919H192.08v-63.85z m0-128.317h192.037v63.891l-192.037 0.028v-63.919z m0 0"  horiz-adv-x="1024" />

    
    <glyph glyph-name="add" unicode="&#59174;" d="M548 420h376c19.882 0 36-16.118 36-36s-16.118-36-36-36H548v-376c0-19.882-16.118-36-36-36s-36 16.118-36 36V348H100c-19.882 0-36 16.118-36 36s16.118 36 36 36h376V796c0 19.882 16.118 36 36 36s36-16.118 36-36v-376z"  horiz-adv-x="1024" />

    
    <glyph glyph-name="toggle" unicode="&#58981;" d="M920.865573 258.27762399999995H102.113167c-2.795673 0-5.514597-0.320295-8.133237-0.911766a36.95875 36.95875 0 0 1-18.426675-10.094916c-12.353352-12.419867-14.18814-31.399127-5.52176-45.776579a37.767162 37.767162 0 0 1 8.416693-9.992585l172.344207-173.278485c14.516622-14.59337 38.053688-14.59337 52.572356 0 14.516622 14.598486 14.516622 38.262442 0 52.856835L192.145693 182.90191300000004h728.718857c20.554128 0 37.217646 16.873296 37.217646 37.685297 0 20.820188-16.662495 37.690414-37.216623 37.690414zM102.113167 509.532041h818.752406a36.920888 36.920888 0 0 1 7.80271 0.836041 36.917818 36.917818 0 0 1 19.774369 10.360976c14.517645 14.59644 14.517645 38.262442 0 52.855811L773.199419 749.774661c-14.515598 14.595416-38.054711 14.595416-52.571333 0-14.515598-14.594393-14.515598-38.261419 0-52.856835l111.408369-112.010073H102.113167c-20.554128 0-37.2156-16.873296-37.2156-37.689391 0-20.814048 16.660448-37.686321 37.2156-37.686321z"  horiz-adv-x="1024" />

    


  </font>
</defs>
</svg>
